<?xml version="1.0" standalone="no"?>
<!DOCTYPE svg PUBLIC "-//W3C//DTD SVG 1.1//EN" "http://www.w3.org/Graphics/SVG/1.1/DTD/svg11.dtd" >
<svg xmlns="http://www.w3.org/2000/svg" xmlns:xlink="http://www.w3.org/1999/xlink" version="1.1">
<metadata></metadata>
<defs>
<font id="rf_rostinregular" horiz-adv-x="1228" >
<font-face units-per-em="2048" ascent="1638" descent="-410" />
<missing-glyph horiz-adv-x="500" />
<glyph horiz-adv-x="0" />
<glyph horiz-adv-x="682" />
<glyph unicode=" " />
<glyph unicode="!" d="M483 121q0 61 38 98t93 37q51 0 91 -39t40 -100q0 -63 -37.5 -100t-93.5 -37q-51 0 -91 39.5t-40 101.5zM518 1434h193l-27 -889h-139z" />
<glyph unicode="&#x22;" d="M315 1444h181l-23 -627h-135zM733 1444h180l-22 -627h-135z" />
<glyph unicode="#" d="M92 430l8 123h226l22 336h-223l8 123h225l29 422h133l-28 -422h290l29 422h133l-29 -422h222l-9 -123h-223l-22 -336h221l-8 -123h-224l-30 -430h-133l30 430h-290l-31 -430h-133l30 430h-223zM459 553h291l22 336h-291z" />
<glyph unicode="$" d="M160 244l114 100q47 -86 123 -139t164 -68v539l-129 84q-121 80 -175 158.5t-54 193.5q0 139 99 233.5t259 106.5v156h115v-158q217 -25 352 -207l-113 -102q-90 127 -239 155v-505l143 -93q111 -72 165 -151.5t54 -204.5q0 -147 -93 -246.5t-269 -113.5v-156h-115v158 q-123 14 -230.5 80.5t-170.5 179.5zM367 1108q0 -68 35.5 -115t119.5 -102l39 -25v432q-90 -10 -142 -65t-52 -125zM676 135q104 12 151 69.5t47 137.5q0 70 -35.5 123t-109.5 102l-53 35v-467z" />
<glyph unicode="%" d="M74 551l1030 450l51 -118l-1030 -451zM115 1178q0 121 82 198.5t206 77.5q125 0 207 -78t82 -198q0 -123 -82 -201t-207 -78q-124 0 -206 78t-82 201zM262 1178q0 -61 39 -101.5t102 -40.5t102.5 40t39.5 102q0 61 -39 100t-103 39q-61 0 -101 -39t-40 -100zM537 256 q0 123 81.5 201t206.5 78t207 -78t82 -201q0 -121 -82 -198.5t-207 -77.5t-206.5 77.5t-81.5 198.5zM684 256q0 -59 40 -99t101 -40q64 0 103 40t39 99q0 61 -39 101t-103 40q-63 0 -102 -40t-39 -101z" />
<glyph unicode="&#x26;" d="M133 326q0 106 49 192t154 184l61 60l-84 117q-45 66 -70.5 130t-25.5 138q0 94 45 163.5t119 106.5t156 37q150 0 234.5 -86t84.5 -223q0 -76 -34 -144.5t-126 -154.5l-98 -94l272 -379q18 55 19 116q0 72 -15.5 131.5t-60.5 129.5h152q76 -102 75 -261q0 -143 -63 -264 l160 -225h-191l-72 100q-133 -121 -339 -120q-193 0 -297.5 95t-104.5 251zM297 344q0 -96 62.5 -154.5t175.5 -58.5q151 0 247 96l-299 416l-55 -53q-68 -61 -99.5 -120.5t-31.5 -125.5zM381 1139q0 -88 72 -187l59 -82l92 88q51 47 69.5 91.5t18.5 95.5q0 74 -43 116 t-112 42q-66 0 -111 -46.5t-45 -117.5z" />
<glyph unicode="'" d="M524 1444h181l-23 -627h-135z" />
<glyph unicode="(" d="M412 666q0 360 156.5 599.5t387.5 366.5l78 -96q-455 -289 -454 -870q-1 -582 454 -871l-78 -96q-231 127 -387.5 366.5t-156.5 600.5z" />
<glyph unicode=")" d="M176 -205q453 287 453 871t-453 870l78 96q231 -127 388 -366.5t157 -599.5t-157 -600t-388 -367z" />
<glyph unicode="*" d="M227 926q174 61 320 131q-154 70 -320 129l82 139q117 -102 273 -211q-23 207 -50 340h162q-33 -178 -47 -340q137 94 273 211l79 -139q-161 -57 -319 -129q147 -70 319 -131l-79 -140q-115 100 -273 211q14 -160 47 -342h-162q27 135 50 342q-156 -109 -273 -211z" />
<glyph unicode="+" d="M223 535v131h322v325h139v-325h322v-131h-322v-326h-139v326h-322z" />
<glyph unicode="," d="M479 -238q53 39 92 97.5t47 120.5h-4q-51 0 -91 39.5t-40 101.5q0 63 38 99t87 36q62 0 99.5 -43t37.5 -117q0 -117 -50 -219t-154 -178z" />
<glyph unicode="-" d="M313 524v152h602v-152h-602z" />
<glyph unicode="." d="M483 121q0 61 38 98t93 37q51 0 91 -39t40 -100q0 -63 -37.5 -100t-93.5 -37q-51 0 -91 39.5t-40 101.5z" />
<glyph unicode="/" d="M86 -188l918 1794l139 -70l-918 -1794z" />
<glyph unicode="0" d="M137 717q0 240 64.5 406.5t173 248.5t239.5 82t240 -82t173.5 -249t64.5 -406q0 -240 -64.5 -407t-173.5 -248.5t-240 -81.5t-239.5 81.5t-173 248.5t-64.5 407zM301 717q0 -182 42 -315.5t113.5 -202t157.5 -68.5q91 0 162.5 68.5t111.5 200.5t40 317q0 182 -42 315 t-114 202t-158 69q-90 0 -161.5 -69t-111.5 -201t-40 -316z" />
<glyph unicode="1" d="M154 0v152h452v1077q-121 -80 -330 -168l-53 141q276 121 430 232h117v-1282h342v-152h-958z" />
<glyph unicode="2" d="M127 0v129l500 528q115 121 158.5 206t43.5 179q0 123 -70.5 192t-176.5 69q-86 0 -163 -48.5t-130 -148.5l-131 76q66 135 179.5 203.5t244.5 68.5q111 0 205 -45t150 -137t56 -230q0 -133 -53 -235t-188 -244l-390 -411h660v-152h-895z" />
<glyph unicode="3" d="M123 244l115 98q115 -211 331 -211q145 0 227.5 82t82.5 215q0 143 -72 216t-191 73q-63 0 -115 -8.5t-122 -24.5l-25 86l416 512h-580v152h789v-107l-379 -469q14 2 45 2q80 0 153.5 -25.5t125.5 -72.5q118 -113 118 -320q0 -215 -128 -338.5t-345 -123.5 q-303 0 -446 264z" />
<glyph unicode="4" d="M86 354v129q346 516 383 951h176q-23 -233 -125 -474t-252 -454h463v319h164v-319h219v-152h-219v-354h-164v354h-645z" />
<glyph unicode="5" d="M141 244l115 102q119 -215 332 -215q143 0 226 89t83 224q0 96 -40 165t-106.5 105t-142.5 36q-74 0 -135 -15.5t-141 -54.5l-123 37l45 717h727v-152h-580l-30 -442q143 57 262 57q108 0 206.5 -48t160 -147.5t61.5 -242.5q0 -141 -58.5 -251t-166 -169t-248.5 -59 q-303 0 -447 264z" />
<glyph unicode="6" d="M156 596q0 397 190.5 605t495.5 253l45 -143q-250 -41 -399.5 -182.5t-172.5 -380.5q59 82 148.5 124.5t187.5 42.5q113 0 211.5 -53t158.5 -158.5t60 -254.5q0 -152 -61.5 -257.5t-161.5 -158.5t-217 -53q-225 0 -355 154.5t-130 461.5zM319 449q0 -92 42 -165t113 -113 t153 -40q127 0 209 88t82 230q0 141 -82 228t-209 87q-82 0 -153 -40t-113 -111.5t-42 -163.5z" />
<glyph unicode="7" d="M158 1282v152h905v-129q-233 -317 -354 -628.5t-142 -676.5h-174q23 352 140.5 659.5t336.5 622.5h-712z" />
<glyph unicode="8" d="M145 391q0 125 69 220.5t185 142.5q-100 47 -155.5 130t-55.5 193q0 119 61.5 204t160 129t204.5 44q109 0 206.5 -44t158.5 -129t61 -204q0 -117 -56 -198.5t-155 -122.5q117 -45 185.5 -139.5t68.5 -225.5q0 -129 -64.5 -223t-172 -142.5t-232.5 -48.5t-232.5 48.5 t-172 142.5t-64.5 223zM309 403q0 -121 87 -197.5t218 -76.5t218.5 77t87.5 197q0 86 -45.5 146.5t-131.5 89.5l-163 51q-117 -12 -194 -94t-77 -193zM352 1067q0 -160 168 -211l129 -41q96 8 162 80t66 172q0 106 -76 171t-187 65t-186.5 -64.5t-75.5 -171.5z" />
<glyph unicode="9" d="M137 995q0 150 61.5 253.5t162 154.5t217.5 51q225 0 355 -146.5t130 -449.5q0 -414 -189.5 -622.5t-496.5 -255.5l-43 143q252 41 401.5 185.5t169.5 385.5q-59 -76 -148 -115.5t-188 -39.5q-111 0 -210 51t-160.5 154.5t-61.5 250.5zM301 995q0 -137 84 -221t207 -84 q82 0 152.5 35t112.5 102.5t42 157.5q0 92 -42 164t-112.5 113t-152.5 41q-123 0 -207 -85t-84 -223z" />
<glyph unicode=":" d="M483 121q0 61 38 98t93 37q51 0 91 -39t40 -100q0 -63 -37.5 -100t-93.5 -37q-51 0 -91 39.5t-40 101.5zM483 909q0 62 38 98.5t93 36.5q51 0 91 -38.5t40 -100.5q0 -63 -37.5 -100t-93.5 -37q-51 0 -91 40t-40 101z" />
<glyph unicode=";" d="M483 -238q53 39 92 97.5t48 120.5h-5q-51 0 -91 39.5t-40 101.5q0 63 38 99t87 36q62 0 100 -43t38 -117q0 -117 -50.5 -219t-154.5 -178zM487 909q0 62 38 98.5t93 36.5q51 0 91.5 -38.5t40.5 -100.5q0 -63 -38 -100t-94 -37q-51 0 -91 40t-40 101z" />
<glyph unicode="&#x3c;" d="M201 535v73l819 463v-170l-631 -356v53l631 -356v-170z" />
<glyph unicode="=" d="M217 330v131h795v-131h-795zM217 702v132h795v-132h-795z" />
<glyph unicode="&#x3e;" d="M211 72v170l631 356v-53l-631 356v170l819 -463v-73z" />
<glyph unicode="?" d="M186 1182q68 133 184.5 202.5t241.5 69.5q160 0 258.5 -87t98.5 -255q0 -84 -33 -154.5t-85 -130t-140 -143.5q-53 -51 -68.5 -95t-15.5 -100h-131q0 92 17 157t85 132q109 109 158 181.5t49 152.5q0 92 -55.5 141.5t-147.5 49.5q-78 0 -155.5 -49.5t-129.5 -147.5z M438 121q0 61 38 98t93 37q51 0 91 -39t40 -100q0 -63 -37.5 -100t-93.5 -37q-51 0 -91 39.5t-40 101.5z" />
<glyph unicode="@" d="M121 512q0 344 81 555t198.5 299t238.5 88q203 0 322.5 -160.5t119.5 -531.5v-320q0 -80 23.5 -202.5t60.5 -239.5h-147q-6 37 -29 217q-37 -117 -100.5 -177t-149.5 -60t-159.5 61t-116.5 182t-43 289t43 289t116.5 182t159.5 61q127 1 201 -124q-16 205 -95 301 t-196 96q-92 0 -179 -78t-144.5 -259t-57.5 -468t63.5 -468t159 -259t197.5 -78q66 0 116 20.5t97 67.5l62 -131q-113 -94 -275 -94q-137 0 -265 86t-215 297t-87 559zM567 512q0 -188 52.5 -291.5t132.5 -103.5q82 0 132 105.5t50 309.5v3q0 172 -49 272t-133 100 q-80 0 -132.5 -104.5t-52.5 -290.5z" />
<glyph unicode="A" d="M111 0l378 1434h250l379 -1434h-166l-100 389h-477l-103 -389h-161zM412 541h401l-199 768z" />
<glyph unicode="B" d="M201 0v1434h440q199 0 310.5 -106.5t111.5 -280.5q0 -221 -180 -306q102 -41 156.5 -126t54.5 -209q0 -186 -111 -296t-311 -110h-471zM365 152h290q275 0 275 254q0 249 -273 249h-2h-290v-503zM365 807h260q137 0 205.5 62.5t68.5 177.5q0 113 -68.5 174t-205.5 61 h-260v-475z" />
<glyph unicode="C" d="M145 717q0 238 79 404.5t205 249.5t265 83q236 0 398 -211l-113 -102q-55 78 -127 120t-152 42q-102 0 -191 -69t-144.5 -201t-55.5 -316q0 -182 58.5 -315.5t151.5 -202t198 -68.5q92 0 171 54.5t134 156.5l115 -98q-72 -129 -182.5 -196.5t-245.5 -67.5 q-143 0 -272.5 82.5t-210.5 249.5t-81 405z" />
<glyph unicode="D" d="M166 0v1434h334q170 0 308 -77t220 -238t82 -402q0 -242 -82 -402.5t-220 -237.5t-308 -77h-334zM330 152h149q209 0 338 141t129 424q0 188 -61.5 315t-167 188.5t-238.5 61.5h-149v-1130z" />
<glyph unicode="E" d="M229 0v1434h809v-152h-645v-475h555v-152h-555v-503h666v-152h-830z" />
<glyph unicode="F" d="M236 0v1434h888v-152h-725v-475h576v-152h-576v-655h-163z" />
<glyph unicode="G" d="M109 717q2 238 75.5 404.5t193.5 249.5t259 83q121 0 230.5 -54t187.5 -157l-113 -102q-53 76 -136 119t-163 43q-102 0 -186 -68t-134.5 -201t-50.5 -317q0 -182 50.5 -315.5t134.5 -202t186 -68.5q109 0 184.5 79t96.5 263v53h-318v152h481v-232q0 -84 24 -203.5 t60 -242.5h-163q-18 70 -37 231q-51 -129 -139.5 -190t-198.5 -61q-135 0 -255 81.5t-194.5 247.5t-74.5 408z" />
<glyph unicode="H" d="M178 0v1434h164v-627h545v627h164v-1434h-164v655h-545v-655h-164z" />
<glyph unicode="I" d="M176 0v152h356v1130h-342v152h848v-152h-342v-1130h357v-152h-877z" />
<glyph unicode="J" d="M139 532h152q0 -180 69.5 -290.5t225.5 -110.5q145 0 221 120t76 302v729h-637v152h803l-2 -891q0 -156 -49.5 -283t-153 -203.5t-258.5 -76.5q-231 0 -339 155.5t-108 396.5z" />
<glyph unicode="K" d="M203 0v1434h164v-789l581 789h207l-457 -592l494 -842h-201l-393 711l-231 -301v-410h-164z" />
<glyph unicode="L" d="M281 0v1434h163v-1282h660v-152h-823z" />
<glyph unicode="M" d="M127 0v1434h256l233 -850l234 850h252v-1434h-164v1260l-248 -836h-153l-246 836v-1260h-164z" />
<glyph unicode="N" d="M158 0v1434h252l503 -1248v1248h158v-1434h-252l-504 1247v-1247h-157z" />
<glyph unicode="O" d="M106 717q0 240 70 406.5t184.5 248.5t253.5 82q140 0 254.5 -82t184 -249t69.5 -406q0 -240 -69.5 -407t-184 -248.5t-254.5 -81.5q-139 0 -253.5 81.5t-184.5 248.5t-70 407zM270 717q0 -182 47.5 -315.5t126 -202t170.5 -68.5q99 0 176.5 68.5t122.5 200.5t45 317 q0 182 -47 315t-125.5 202t-171.5 69q-98 0 -176 -69t-123 -201t-45 -316z" />
<glyph unicode="P" d="M186 0v1434h488q203 0 318.5 -115t115.5 -320t-115.5 -320.5t-318.5 -115.5h-324v-563h-164zM350 715h299h2q293 0 293 284q0 283 -295 283h-299v-567z" />
<glyph unicode="Q" d="M106 717q0 240 70 406.5t184.5 248.5t253.5 82t254 -82t184.5 -249t69.5 -406q0 -299 -105.5 -483.5t-275.5 -235.5l150 -272h-166l-139 254q-133 8 -241.5 94t-173.5 248.5t-65 394.5zM270 717q0 -182 47.5 -315.5t126 -202t170.5 -68.5q99 0 176.5 68.5t122.5 200.5 t45 317q0 182 -47 315t-125.5 202t-171.5 69q-98 0 -176 -69t-123 -201t-45 -316z" />
<glyph unicode="R" d="M186 0v1434h492q199 0 310.5 -117t111.5 -311q0 -160 -75 -268.5t-214 -145.5l311 -592h-194l-287 575h-291v-575h-164zM350 727h312q139 0 206.5 72.5t67.5 206.5q0 133 -68.5 204.5t-205.5 71.5h-312v-555z" />
<glyph unicode="S" d="M123 244l115 100q55 -100 161.5 -156.5t229.5 -56.5q147 0 221 62.5t74 160.5q0 72 -37 123t-123 96l-367 185q-127 63 -179 147t-52 201q0 100 57.5 179t163 124t240.5 45q141 0 256.5 -53t193.5 -158l-112 -102q-55 76 -146.5 119t-191.5 43q-135 0 -216 -59.5 t-81 -143.5q0 -68 32.5 -115t110.5 -84l369 -186q125 -64 185 -147t60 -210q0 -170 -117.5 -274t-340.5 -104q-158 0 -296 67.5t-210 196.5z" />
<glyph unicode="T" d="M117 1282v152h995v-152h-416v-1282h-164v1282h-415z" />
<glyph unicode="U" d="M172 446v988h164v-973q0 -143 69.5 -236.5t208.5 -93.5t209 93t70 237v973h164v-988q0 -125 -49.5 -231t-149.5 -170.5t-244 -64.5q-143 0 -243.5 64.5t-149.5 171t-49 230.5z" />
<glyph unicode="V" d="M104 1434h170l342 -1307l347 1307h161l-381 -1434h-258z" />
<glyph unicode="W" d="M86 1434h170l117 -1256l143 856h197l143 -860l121 1260h166l-164 -1434h-225l-142 868l-141 -868h-225z" />
<glyph unicode="X" d="M80 0l432 725l-424 709h195l333 -572l336 572h189l-426 -711l434 -723h-195l-342 586l-346 -586h-186z" />
<glyph unicode="Y" d="M84 1434h182l350 -742l351 742h178l-449 -908v-526h-164v526z" />
<glyph unicode="Z" d="M145 0v129l705 1153h-657v152h868v-129l-705 -1153h727v-152h-938z" />
<glyph unicode="[" d="M442 -315v1982h514v-143h-358v-1696h358v-143h-514z" />
<glyph unicode="\" d="M86 1536l139 70l918 -1794l-139 -70z" />
<glyph unicode="]" d="M272 -172h359v1696h-359v143h514v-1982h-514v143z" />
<glyph unicode="^" d="M268 848l262 586h168l263 -586h-173l-174 432l-174 -432h-172z" />
<glyph unicode="_" d="M168 -90h893v-148h-893v148z" />
<glyph unicode="a" d="M141 221q0 119 71 203t188.5 126t256.5 42q94 0 183 -17q-2 317 -240 318q-84 0 -154.5 -24.5t-156.5 -84.5l-99 117q199 143 414 143q201 0 300.5 -117.5t99.5 -383.5v-97q0 -84 23.5 -203.5t59.5 -242.5h-163q-14 98 -29 299q-66 -156 -177.5 -237.5t-266.5 -81.5 q-145 0 -227.5 66.5t-82.5 174.5zM305 233q0 -47 46 -74.5t118 -27.5q125 0 227.5 72.5t143.5 226.5v2q-111 16 -178 17q-156 0 -256.5 -59.5t-100.5 -156.5z" />
<glyph unicode="b" d="M133 0q37 121 60.5 279.5t23.5 298.5v856h164l-16 -598q47 98 130 153t197 55q101 0 194 -59t152.5 -179t59.5 -294q0 -176 -58.5 -296t-150.5 -178t-199 -58q-139 0 -233.5 80.5t-132.5 222.5q-10 -133 -27 -283h-164zM381 512q2 -162 79 -271.5t212 -109.5 q119 0 190.5 99.5t71.5 281.5q0 121 -37 207t-100.5 130t-139.5 44q-127 0 -200.5 -109.5t-75.5 -271.5z" />
<glyph unicode="c" d="M188 512q0 172 67 293t173.5 180t224.5 59q127 0 222.5 -54t164.5 -161l-116 -96q-59 84 -120 122t-147 38q-135 0 -220 -99.5t-85 -281.5q0 -121 44 -208t118 -130t158 -43t146.5 41t129.5 133l123 -88q-84 -115 -177 -176t-226 -61q-123 0 -232.5 59t-178.5 179 t-69 294z" />
<glyph unicode="d" d="M127 512q0 166 61.5 287t156.5 183t194 62q115 0 197.5 -56t129.5 -159l-20 605h164v-856q0 -139 23.5 -298t60.5 -280h-164q-16 150 -27 283q-39 -141 -131 -222t-229 -81q-180 0 -298 131t-118 401zM291 512q0 -182 73.5 -281.5t192.5 -99.5q133 0 211 109.5t78 271.5 t-75 271.5t-202 109.5q-76 0 -139 -44t-101 -130t-38 -207z" />
<glyph unicode="e" d="M154 512q0 176 63.5 296t167.5 178t227 58q211 0 337 -133t126 -389q0 -36 -6 -71l-754 -7q18 -152 109.5 -232.5t214.5 -80.5q84 0 150.5 26.5t150.5 98.5l94 -117q-84 -80 -178 -119.5t-213 -39.5q-129 0 -240.5 58t-180 179t-68.5 295zM315 580h596q-4 135 -81.5 224 t-213.5 89q-124 0 -205 -81t-96 -232z" />
<glyph unicode="f" d="M113 868v152h266v37q0 190 106.5 293.5t282.5 103.5q166 0 301 -86l-63 -135q-70 39 -124.5 54.5t-115.5 15.5q-96 0 -159.5 -63.5t-63.5 -197.5v-22h581v-152h-581v-868h-164v868h-266z" />
<glyph unicode="g" d="M139 532q0 168 62.5 284t158 172t195.5 56q137 0 230.5 -80.5t129.5 -226.5q10 129 27 287h164q-37 -123 -60.5 -271.5t-23.5 -285.5v-391q0 -260 -106.5 -383t-303.5 -123q-106 0 -208.5 31.5t-170.5 89.5l33 147q149 -112 337 -112h3q125 0 188.5 79.5t63.5 251.5v142 q-49 -86 -126 -132.5t-177 -46.5q-106 0 -201.5 55.5t-155 171t-59.5 285.5zM303 532q0 -174 74 -267t192 -93q136 0 212.5 102.5t76.5 257.5q0 156 -73.5 258.5t-202.5 102.5q-76 0 -139.5 -40t-101.5 -122t-38 -199z" />
<glyph unicode="h" d="M227 0v1434h164l-22 -650q49 125 132 192.5t195 67.5q213 0 283 -196q41 -115 41 -328v-520h-164v481q0 203 -29 291q-39 121 -153 121q-135 0 -209 -152.5t-74 -380.5v-360h-164z" />
<glyph unicode="i" d="M207 0v152h381v720h-342v152h506v-872h321v-152h-866zM539 1346q0 63 34.5 102t92.5 39q53 0 90 -43t37 -103q0 -63 -35 -102t-92 -39q-53 0 -90 42t-37 104z" />
<glyph unicode="j" d="M78 -315l31 149q82 -59 161.5 -86t171.5 -27q115 0 184.5 84t69.5 224v843h-469v152h633v-971q-2 -233 -112.5 -358t-301.5 -125q-109 0 -206 30.5t-162 84.5zM647 1343q0 63 35 102.5t92 39.5q53 0 90 -43t37 -103q0 -63 -36 -102t-91 -39q-53 0 -90 43t-37 102z" />
<glyph unicode="k" d="M229 0v1434h164v-930l484 520h215l-410 -426l426 -598h-203l-325 492l-187 -195v-297h-164z" />
<glyph unicode="l" d="M51 1282v152h559v-1000q0 -145 56.5 -224t162.5 -79q133 0 271 94l30 -149q-63 -47 -148 -71.5t-175 -24.5q-176 0 -268.5 116.5t-92.5 317.5v868h-395z" />
<glyph unicode="m" d="M55 1024h164q27 -127 35 -250q29 125 91.5 197.5t143.5 72.5q160 0 209 -180q35 86 88.5 133t118.5 47h1q229 0 229 -366v-678h-164v639q0 121 -22.5 187.5t-78.5 66.5q-74 0 -112.5 -131t-38.5 -346v-416h-164v639q0 121 -22.5 187.5t-77.5 66.5q-74 0 -113 -131 t-39 -346v-416h-164v575q0 109 -21.5 212.5t-62.5 236.5z" />
<glyph unicode="n" d="M158 1024h164q2 -29 13 -137.5t17 -196.5q43 168 134.5 261t224.5 93q213 0 282 -196q43 -113 43 -328v-520h-164v481q0 195 -28 287q-37 125 -156 125q-135 0 -207.5 -151.5t-74.5 -381.5v-360h-164v467q0 137 -23.5 285.5t-60.5 271.5z" />
<glyph unicode="o" d="M158 512q0 174 63.5 295t168 179t224.5 58q121 0 225.5 -58t168 -179t63.5 -295t-63.5 -295t-168 -179t-225.5 -58t-225 58t-167.5 179t-63.5 295zM322 512q0 -121 39.5 -207t106.5 -130t146 -44q134 0 213.5 99.5t79.5 281.5q0 121 -40 207t-106.5 130t-146.5 44 q-133 0 -212.5 -99.5t-79.5 -281.5z" />
<glyph unicode="p" d="M135 1024h164q25 -229 29 -283q39 141 133 222t233 81q101 0 195 -59t154.5 -179t60.5 -294q0 -176 -58.5 -296t-152.5 -178t-201 -58q-102 0 -181 46t-128 130v-566h-164v877q0 137 -23.5 285.5t-60.5 271.5zM383 512q2 -162 79 -271.5t212 -109.5q119 0 192.5 99.5 t73.5 281.5q0 121 -38 207t-102.5 130t-140.5 44q-127 0 -200.5 -109.5t-75.5 -271.5z" />
<glyph unicode="q" d="M125 512q0 166 61.5 287t156.5 183t194 62q137 0 230 -79.5t134 -223.5q10 121 27 283h164q-37 -123 -60.5 -271.5t-23.5 -285.5v-877h-164v566q-49 -84 -126 -130t-177 -46q-180 0 -298 131t-118 401zM289 512q0 -182 73.5 -281.5t192.5 -99.5q133 0 211 109.5t78 271.5 t-75 271.5t-202 109.5q-76 0 -139 -44t-101 -130t-38 -207z" />
<glyph unicode="r" d="M186 1024h156q10 -59 22.5 -172t16.5 -211q33 182 128 292.5t234 110.5q229 0 297 -229q23 -71 23 -225h-164q0 303 -178 303q-88 0 -153.5 -86t-99.5 -222t-34 -286v-299h-164v467q0 131 -23.5 285.5t-60.5 271.5z" />
<glyph unicode="s" d="M180 172l103 104q70 -76 156.5 -110.5t207.5 -34.5q113 0 169 38t56 103q0 45 -25.5 76t-90.5 53l-316 97q-123 39 -177 103.5t-54 156.5q0 145 115.5 215.5t283.5 70.5q119 0 220.5 -37.5t172.5 -109.5l-102 -113q-117 109 -291 109q-109 0 -172 -35t-63 -92 q0 -43 29.5 -72.5t95.5 -50.5l315 -96q121 -39 172 -106.5t51 -168.5q0 -133 -103.5 -212.5t-285.5 -79.5q-147 0 -274 50t-193 142z" />
<glyph unicode="t" d="M94 872v152h256q45 113 51 291h113v-291h541v-152h-541v-448q0 -143 63.5 -218t184.5 -75q170 0 303 94l29 -149q-68 -49 -161 -72.5t-188 -23.5q-193 0 -294 111.5t-101 314.5v466h-256z" />
<glyph unicode="u" d="M197 506v518h163v-479q0 -102 5.5 -171t21.5 -118q37 -125 156 -125q135 0 208.5 162t73.5 391v340h164v-446q0 -139 23.5 -298t60.5 -280h-164q-20 205 -30 348q-43 -174 -134.5 -271t-224.5 -97q-213 0 -282 196q-41 115 -41 330z" />
<glyph unicode="v" d="M147 1024h181l286 -831l287 831h180l-383 -1024h-168z" />
<glyph unicode="w" d="M59 1024h172l162 -852l144 635h155l144 -635l161 852h172l-231 -1024h-184l-140 618l-139 -618h-184z" />
<glyph unicode="x" d="M150 0l356 516l-352 508h188l264 -399l271 399h184l-350 -508l356 -516h-188l-269 406l-276 -406h-184z" />
<glyph unicode="y" d="M92 -309l31 147q105 -112 213 -112h2q82 0 128 48t77 136l22 70l-415 1044h180l313 -848l270 848h174l-387 -1147q-49 -150 -130 -228.5t-214 -78.5q-82 0 -149.5 30.5t-114.5 90.5z" />
<glyph unicode="z" d="M211 0v129l565 743h-540v152h759v-129l-565 -743h582v-152h-801z" />
<glyph unicode="{" d="M309 604v144h129q49 0 78 29.5t29 86.5v486q0 317 282 317h189v-143h-172q-143 0 -144 -168v-469q1 -172 -149 -211q150 -39 149 -211v-469q0 -168 144 -168h172v-143h-189q-283 0 -282 317v485q0 57 -29 87t-78 30h-129z" />
<glyph unicode="|" d="M537 -223v1771h155v-1771h-155z" />
<glyph unicode="}" d="M213 -172h172q143 0 143 168v469q0 172 150 211q-150 39 -150 211v469q0 168 -143 168h-172v143h188q283 0 283 -317v-486q0 -57 28.5 -86.5t78.5 -29.5h129v-144h-129q-49 0 -78 -29.5t-29 -87.5v-485q0 -317 -283 -317h-188v143z" />
<glyph unicode="~" d="M178 504q45 135 111.5 199.5t154.5 64.5q43 0 77 -13.5t73 -43.5l121 -95q20 -14 34.5 -20t34.5 -6q39 0 73 38t73 128l121 -62q-88 -264 -267 -264q-43 0 -76.5 13.5t-72.5 43.5l-121 95q-20 14 -34.5 20t-35.5 6q-39 0 -72.5 -38t-70.5 -128z" />
<glyph unicode="&#xa0;" />
<glyph unicode="&#xa2;" d="M236 512q0 154 49 266.5t131 177t180 82.5v160h147v-162q86 -14 158 -66t125 -134l-113 -103q-94 160 -245 160q-117 0 -193 -101.5t-76 -279.5q0 -119 40 -205t104.5 -131t138.5 -45t132 41t112 131l118 -98q-119 -194 -301 -221v-158h-147v162q-98 18 -180 83.5 t-131 177t-49 263.5z" />
<glyph unicode="&#xa3;" d="M209 635v135h119l-29 66q-59 137 -59 247q0 104 49 189.5t140 133.5t210 48q248 0 410 -211l-109 -96q-127 156 -301 156q-109 0 -172.5 -62.5t-63.5 -161.5q0 -45 12.5 -90t37.5 -104l49 -115h325v-135h-268q49 -117 49 -203q0 -66 -32.5 -124t-106.5 -120q61 25 129 25 q51 0 123 -27l90 -34q51 -20 98 -21q45 0 80 19.5t72 66.5l86 -125q-100 -113 -242 -112q-63 0 -133 24l-92 33q-68 25 -121 24q-61 0 -120.5 -14t-151.5 -47l-74 135q106 72 167.5 143.5t61.5 153.5q0 80 -41 174l-12 29h-180z" />
<glyph unicode="&#xa5;" d="M143 1434h183l290 -625l291 625h178l-340 -695h230v-135h-279v-164h279v-135h-279v-305h-164v305h-278v135h278v164h-278v135h229z" />
<glyph unicode="&#xa9;" d="M109 635q0 201 69.5 349.5t185 227t250.5 78.5q136 0 251.5 -78.5t185 -227t69.5 -349.5t-69.5 -349.5t-185 -227t-251.5 -78.5q-135 0 -250.5 78.5t-185 227t-69.5 349.5zM233 635q0 -160 52.5 -284t139.5 -192.5t189 -68.5q103 0 190 68.5t139 192.5t52 284t-52 283.5 t-139 192.5t-190 69q-102 0 -189 -69t-139.5 -192.5t-52.5 -283.5zM360 635q0 152 72 249t191 97q80 0 134 -45t83 -125l-101 -49q-16 51 -46.5 79.5t-69.5 28.5q-58 0 -98 -65.5t-40 -169.5t40 -170t98 -66q43 0 76.5 29t48.5 84l102 -47q-33 -82 -90.5 -129t-136.5 -47 q-119 0 -191 97t-72 249z" />
<glyph unicode="&#xab;" d="M162 530v54q184 184 336 395l108 -107q-131 -164 -307 -315q176 -151 307 -315l-108 -107q-152 211 -336 395zM584 530v54q184 184 336 395l108 -107q-131 -164 -307 -315q176 -151 307 -315l-108 -107q-152 211 -336 395z" />
<glyph unicode="&#xad;" d="M313 524v152h602v-152h-602z" />
<glyph unicode="&#xae;" d="M123 936q0 147 66.5 262t178 177.5t246.5 62.5q136 0 247.5 -62.5t178 -177.5t66.5 -262t-66.5 -262t-178 -177.5t-247.5 -62.5q-135 0 -246.5 62.5t-178 177t-66.5 262.5zM221 936q0 -123 53.5 -217t143.5 -146.5t196 -52.5q107 0 197 52.5t143.5 146.5t53.5 217 t-53.5 217t-143.5 146.5t-197 52.5q-106 0 -196 -52.5t-143.5 -146.5t-53.5 -217zM440 707v477h195q86 0 134 -46t48 -120q0 -43 -24.5 -80t-69.5 -57l106 -174h-129l-77 155h-74v-155h-109zM549 950h84q37 0 56.5 18.5t19.5 49.5t-19.5 50t-56.5 19h-84v-137z" />
<glyph unicode="&#xbb;" d="M201 242q131 164 307 315q-176 152 -307 315l108 107q152 -211 336 -395v-54q-184 -184 -336 -395zM623 242q131 164 307 315q-176 152 -307 315l108 107q152 -211 336 -395v-54q-184 -184 -336 -395z" />
<glyph unicode="&#x401;" d="M229 0v1434h809v-152h-645v-475h555v-152h-555v-503h666v-152h-830zM313 1741q0 51 32 85t83 34q47 0 82 -36t35 -87q0 -49 -34 -84t-83 -35q-45 0 -80 37t-35 86zM743 1741q0 51 32 85t83 34q47 0 81 -36t34 -87q0 -49 -33 -84t-82 -35q-47 0 -81 37t-34 86z" />
<glyph unicode="&#x404;" d="M156 717q2 238 77.5 404.5t198.5 249.5t264 83q123 0 223.5 -44t182.5 -146l-113 -103q-104 141 -289 142q-94 0 -176 -58.5t-136 -172.5t-66 -271h532v-137h-535q8 -168 65.5 -288t145.5 -182.5t187 -62.5q209 0 315 191l115 -99q-72 -125 -184.5 -184t-253.5 -59 q-143 0 -270.5 82.5t-205 249.5t-77.5 405z" />
<glyph unicode="&#x406;" d="M176 0v152h356v1130h-342v152h848v-152h-342v-1130h357v-152h-877z" />
<glyph unicode="&#x407;" d="M176 0v152h356v1130h-342v152h848v-152h-342v-1130h357v-152h-877zM285 1741q0 51 31.5 85t82.5 34q47 0 82 -36t35 -87q0 -49 -33.5 -84t-83.5 -35q-45 0 -79.5 37t-34.5 86zM715 1741q0 51 31.5 85t82.5 34q47 0 81 -36t34 -87q0 -49 -32.5 -84t-82.5 -35 q-47 0 -80.5 37t-33.5 86z" />
<glyph unicode="&#x40e;" d="M98 1434h174l410 -895l291 895h164l-402 -1184q-51 -154 -125.5 -212t-167.5 -58q-106 0 -178 69l41 148q59 -66 127 -66q49 0 87 31t71 125l20 57zM328 1851h133q0 -70 46 -109.5t134 -39.5t134 40t46 109h133q0 -119 -80.5 -195.5t-232.5 -76.5t-232.5 77t-80.5 195z " />
<glyph unicode="&#x410;" d="M111 0l378 1434h250l379 -1434h-166l-100 389h-477l-103 -389h-161zM412 541h401l-199 768z" />
<glyph unicode="&#x411;" d="M203 0v1434h780v-152h-616v-440h284q211 0 326 -112t115 -308q0 -199 -115 -310.5t-326 -111.5h-448zM367 152h272q149 0 219 67.5t70 202.5q0 133 -71 200.5t-218 67.5h-272v-538z" />
<glyph unicode="&#x412;" d="M201 0v1434h440q199 0 310.5 -106.5t111.5 -280.5q0 -221 -180 -306q102 -41 156.5 -126t54.5 -209q0 -186 -111 -296t-311 -110h-471zM365 152h290q275 0 275 254q0 250 -275 249h-290v-503zM365 807h260q137 0 205.5 62.5t68.5 177.5q0 113 -68.5 174t-205.5 61h-260 v-475z" />
<glyph unicode="&#x413;" d="M285 0v1434h780v-152h-616v-1282h-164z" />
<glyph unicode="&#x414;" d="M96 152h86q49 100 68 331q37 440 45 951h692v-1282h137v-435h-141v283h-745v-283h-142v435zM350 152h473v1130h-381q-16 -504 -43 -825q-14 -199 -49 -305z" />
<glyph unicode="&#x415;" d="M229 0v1434h809v-152h-645v-475h555v-152h-555v-503h666v-152h-830z" />
<glyph unicode="&#x416;" d="M59 0l205 735l-190 699h180l143 -627h140v627h155v-627h139l144 627h180l-190 -699l204 -735h-178l-153 655h-146v-655h-155v655h-146l-153 -655h-179z" />
<glyph unicode="&#x417;" d="M88 223l115 99q51 -94 149.5 -142.5t204.5 -48.5q141 0 228 76t87 199q0 250 -274 249h-199v152h150q137 0 205.5 64.5t68.5 175.5q0 115 -69.5 185.5t-200.5 70.5q-92 0 -166 -33t-133 -109l-113 103q86 102 192.5 146t235.5 44q131 0 225.5 -51t143.5 -140t49 -200 q0 -109 -46 -190.5t-136 -127.5q113 -40 172 -129.5t59 -218.5q0 -123 -60.5 -218t-167 -147t-241.5 -52q-145 0 -277 60t-202 183z" />
<glyph unicode="&#x418;" d="M166 0v1434h164v-1241l493 1241h240v-1434h-164v1241l-493 -1241h-240z" />
<glyph unicode="&#x419;" d="M166 0v1434h164v-1241l493 1241h240v-1434h-164v1241l-493 -1241h-240zM301 1851h133q0 -70 46 -109.5t134 -39.5t134.5 40t46.5 109h133q0 -119 -81 -195.5t-233 -76.5t-232.5 77t-80.5 195z" />
<glyph unicode="&#x41a;" d="M219 0v1434h164v-627h217l348 627h197l-397 -699l440 -735h-199l-377 655h-229v-655h-164z" />
<glyph unicode="&#x41b;" d="M31 35l45 145q25 -25 48 -37t54 -12q49 0 83 69.5t50 282.5q37 440 45 951h680v-1434h-164v1282h-368q-16 -504 -43 -825q-10 -143 -28.5 -231.5t-47.5 -139.5q-59 -106 -182 -106q-98 0 -172 55z" />
<glyph unicode="&#x41c;" d="M127 0v1434h256l233 -850l234 850h252v-1434h-164v1260l-248 -836h-153l-246 836v-1260h-164z" />
<glyph unicode="&#x41d;" d="M178 0v1434h164v-627h545v627h164v-1434h-164v655h-545v-655h-164z" />
<glyph unicode="&#x41e;" d="M106 717q0 240 70 406.5t184.5 248.5t253.5 82q140 0 254.5 -82t184 -249t69.5 -406q0 -240 -69.5 -407t-184 -248.5t-254.5 -81.5q-139 0 -253.5 81.5t-184.5 248.5t-70 407zM270 717q0 -182 47.5 -315.5t126 -202t170.5 -68.5q99 0 176.5 68.5t122.5 200.5t45 317 q0 182 -47 315t-125.5 202t-171.5 69q-98 0 -176 -69t-123 -201t-45 -316z" />
<glyph unicode="&#x41f;" d="M184 0v1434h860v-1434h-163v1282h-533v-1282h-164z" />
<glyph unicode="&#x420;" d="M186 0v1434h488q203 0 318.5 -115t115.5 -320t-115.5 -320.5t-318.5 -115.5h-324v-563h-164zM350 715h299q295 -1 295 284q0 283 -295 283h-299v-567z" />
<glyph unicode="&#x421;" d="M145 717q0 238 79 404.5t205 249.5t265 83q236 0 398 -211l-113 -102q-55 78 -127 120t-152 42q-102 0 -191 -69t-144.5 -201t-55.5 -316q0 -182 58.5 -315.5t151.5 -202t198 -68.5q92 0 171 54.5t134 156.5l115 -98q-72 -129 -182.5 -196.5t-245.5 -67.5 q-143 0 -272.5 82.5t-210.5 249.5t-81 405z" />
<glyph unicode="&#x422;" d="M117 1282v152h995v-152h-416v-1282h-164v1282h-415z" />
<glyph unicode="&#x423;" d="M98 1434h174l410 -895l291 895h164l-402 -1184q-51 -154 -125.5 -212t-167.5 -58q-106 0 -178 69l41 148q59 -66 127 -66q49 0 87 31t71 125l20 57z" />
<glyph unicode="&#x424;" d="M82 717q0 188 61.5 323.5t165 208t228.5 82.5v154h155v-154q125 -10 228.5 -82.5t165 -208t61.5 -323.5q0 -189 -61.5 -324t-165 -207.5t-228.5 -83.5v-153h-155v153q-125 10 -228.5 83t-165 208t-61.5 324zM240 717q0 -201 84 -324t213 -137v922q-133 -14 -215 -136 t-82 -325zM692 256q133 14 215 136t82 325q0 201 -84 323.5t-213 137.5v-922z" />
<glyph unicode="&#x425;" d="M80 0l432 725l-424 709h195l333 -572l336 572h189l-426 -711l434 -723h-195l-342 586l-346 -586h-186z" />
<glyph unicode="&#x426;" d="M184 0v1434h164v-1282h496v1282h164v-1282h137v-435h-141v283h-820z" />
<glyph unicode="&#x427;" d="M158 1010v424h164v-412q0 -127 68.5 -205t203.5 -78q123 0 254 25v670h164v-1434h-164v614q-154 -27 -275 -26q-127 0 -221 53t-144 149.5t-50 219.5z" />
<glyph unicode="&#x428;" d="M127 0v1434h158v-1282h250v1282h157v-1282h252v1282h158v-1434h-975z" />
<glyph unicode="&#x429;" d="M115 0v1434h157v-1282h250v1282h158v-1282h252v1282h158v-1282h114v-435h-141v283h-948z" />
<glyph unicode="&#x42a;" d="M16 1282v152h478v-592h200q211 0 326 -112t115 -308q0 -199 -115 -310.5t-326 -111.5h-364v1282h-314zM494 152h188q149 0 219 67.5t70 202.5q0 133 -71 200.5t-218 67.5h-188v-538z" />
<glyph unicode="&#x42b;" d="M127 0v1434h164v-592h71q195 0 303.5 -108.5t108.5 -311.5t-108.5 -312.5t-303.5 -109.5h-235zM291 152h69q127 0 191.5 68.5t64.5 201.5q0 131 -64.5 199.5t-191.5 68.5h-69v-538zM938 0v1434h164v-1434h-164z" />
<glyph unicode="&#x42c;" d="M215 0v1434h158v-592h272q211 0 325.5 -112t114.5 -308q0 -199 -114.5 -310.5t-325.5 -111.5h-430zM373 152h260q149 0 219 67.5t70 202.5q0 133 -71 200.5t-218 67.5h-260v-538z" />
<glyph unicode="&#x42d;" d="M72 223l114 99q106 -190 316 -191q98 0 186 62.5t145.5 182.5t65.5 288h-534v137h532q-12 158 -66.5 271.5t-136.5 172t-176 58.5q-184 0 -289 -142l-112 103q82 102 182 146t223 44q142 0 264.5 -83t198.5 -250t78 -404q0 -238 -78 -405t-205 -249.5t-270 -82.5 q-141 0 -254 59t-184 184z" />
<glyph unicode="&#x42e;" d="M121 0v1434h164v-627h155q12 324 106.5 485.5t237.5 161.5q156 0 250 -183.5t94 -553.5q0 -371 -94 -554t-250 -183q-147 0 -241 168.5t-103 506.5h-155v-655h-164zM596 717q0 -190 25.5 -322.5t68.5 -198t94 -65.5q52 0 95 65.5t68.5 197.5t25.5 323q0 287 -51.5 436.5 t-137.5 149.5t-137 -149.5t-51 -436.5z" />
<glyph unicode="&#x42f;" d="M94 0l312 592q-139 37 -214 146.5t-75 267.5q0 195 111.5 311.5t310.5 116.5h491v-1434h-164v575h-291l-286 -575h-195zM281 1006q0 -133 68.5 -206t205.5 -73h311v555h-311q-137 0 -205.5 -71.5t-68.5 -204.5z" />
<glyph unicode="&#x430;" d="M141 221q0 119 71 203t188.5 126t256.5 42q94 0 183 -17q-2 317 -240 318q-84 0 -154.5 -24.5t-156.5 -84.5l-99 117q199 143 414 143q201 0 300.5 -117.5t99.5 -383.5v-97q0 -84 23.5 -203.5t59.5 -242.5h-163q-14 98 -29 299q-66 -156 -177.5 -237.5t-266.5 -81.5 q-145 0 -227.5 66.5t-82.5 174.5zM305 233q0 -47 46 -74.5t118 -27.5q125 0 227.5 72.5t143.5 226.5v2q-111 16 -178 17q-156 0 -256.5 -59.5t-100.5 -156.5z" />
<glyph unicode="&#x431;" d="M162 637q0 254 47 403.5t138 220t237 95.5l188 30q104 16 221 68v-156q-92 -45 -231 -69l-187 -31q-96 -16 -156.5 -66.5t-96 -152.5t-46.5 -279q43 145 142.5 220t230.5 75q117 0 214.5 -58t154.5 -173t57 -277q0 -164 -63.5 -278.5t-168 -171.5t-225.5 -57 q-201 0 -328.5 156.5t-127.5 500.5zM326 479q0 -106 40 -185t106.5 -121t145.5 -42q132 0 212.5 95.5t80.5 260.5q0 109 -40 190t-106.5 124t-146.5 43q-129 0 -210.5 -97.5t-81.5 -267.5z" />
<glyph unicode="&#x432;" d="M215 0v1024h469q170 0 249 -75t79 -195q0 -164 -140 -219q89 -29 129.5 -92.5t40.5 -151.5q0 -125 -79.5 -208t-247.5 -83h-500zM379 152h321q179 -1 179 153q0 150 -179 150h-321v-303zM379 592h291q90 0 134 33.5t44 105.5q0 74 -43 107.5t-135 33.5h-291v-280z" />
<glyph unicode="&#x433;" d="M293 0v1024h743v-152h-579v-872h-164z" />
<glyph unicode="&#x434;" d="M115 152h94q29 63 43 157q39 281 55 715h643v-872h125v-402h-141v250h-678v-250h-141v402zM369 152h417v720h-333q-16 -299 -52 -585q-12 -80 -32 -135z" />
<glyph unicode="&#x435;" d="M154 512q0 176 63.5 296t167.5 178t227 58q211 0 337 -133t126 -389q0 -36 -6 -71l-754 -7q18 -152 109.5 -232.5t214.5 -80.5q84 0 150.5 26.5t150.5 98.5l94 -117q-84 -80 -178 -119.5t-213 -39.5q-129 0 -240.5 58t-180 179t-68.5 295zM315 580h596q-4 135 -81.5 224 t-213.5 89q-124 0 -205 -81t-96 -232z" />
<glyph unicode="&#x436;" d="M80 0l219 528l-203 496h180l148 -426h113v426h155v-426h113l147 426h181l-203 -496l219 -528h-191l-151 446h-115v-446h-155v446h-115l-152 -446h-190z" />
<glyph unicode="&#x437;" d="M158 197l123 88q63 -82 135.5 -118t187.5 -36q143 0 202.5 46t59.5 128q0 150 -178 150h-213v137h168q82 0 130 41t48 112q0 70 -50 109t-161 39q-90 0 -161.5 -34t-126.5 -105l-117 96q74 96 178 145t227 49q193 0 284 -79.5t91 -208.5q0 -154 -133 -219 q92 -29 135 -92.5t43 -149.5q0 -137 -99.5 -226t-326.5 -89q-158 0 -263 56t-183 161z" />
<glyph unicode="&#x438;" d="M182 0v1024h164v-840l475 840h226v-1024h-164v840l-475 -840h-226z" />
<glyph unicode="&#x439;" d="M182 0v1024h164v-840l475 840h226v-1024h-164v840l-475 -840h-226zM301 1436h133q0 -70 46 -110t134 -40t134.5 40t46.5 110h133q0 -119 -81 -196t-233 -77t-232.5 77t-80.5 196z" />
<glyph unicode="&#x43a;" d="M250 0v1024h164v-426h186l313 426h191l-367 -494l383 -530h-200l-310 446h-196v-446h-164z" />
<glyph unicode="&#x43b;" d="M59 35l43 141q18 -20 43 -32.5t50 -12.5q78 0 104 178q39 281 55 715h652v-1024h-164v872h-342q-16 -299 -51 -585q-23 -166 -84.5 -236.5t-163.5 -70.5q-84 0 -142 55z" />
<glyph unicode="&#x43c;" d="M150 0v1024h239l225 -526l226 526h239v-1024h-164v854l-229 -516h-143l-230 516v-854h-163z" />
<glyph unicode="&#x43d;" d="M199 0v1024h163v-426h504v426h164v-1024h-164v446h-504v-446h-163z" />
<glyph unicode="&#x43e;" d="M158 512q0 174 63.5 295t168 179t224.5 58q121 0 225.5 -58t168 -179t63.5 -295t-63.5 -295t-168 -179t-225.5 -58t-225 58t-167.5 179t-63.5 295zM322 512q0 -121 39.5 -207t106.5 -130t146 -44q134 0 213.5 99.5t79.5 281.5q0 121 -40 207t-106.5 130t-146.5 44 q-133 0 -212.5 -99.5t-79.5 -281.5z" />
<glyph unicode="&#x43f;" d="M215 0v1024h799v-1024h-164v872h-471v-872h-164z" />
<glyph unicode="&#x440;" d="M135 1024h164q25 -229 29 -283q39 141 133 222t233 81q101 0 195 -59t154.5 -179t60.5 -294q0 -176 -58.5 -296t-152.5 -178t-201 -58q-102 0 -181 46t-128 130v-566h-164v877q0 137 -23.5 285.5t-60.5 271.5zM383 512q2 -162 79 -271.5t212 -109.5q119 0 192.5 99.5 t73.5 281.5q0 121 -38 207t-102.5 130t-140.5 44q-127 0 -200.5 -109.5t-75.5 -271.5z" />
<glyph unicode="&#x441;" d="M188 512q0 172 67 293t173.5 180t224.5 59q127 0 222.5 -54t164.5 -161l-116 -96q-59 84 -120 122t-147 38q-135 0 -220 -99.5t-85 -281.5q0 -121 44 -208t118 -130t158 -43t146.5 41t129.5 133l123 -88q-84 -115 -177 -176t-226 -61q-123 0 -232.5 59t-178.5 179 t-69 294z" />
<glyph unicode="&#x442;" d="M137 872v152h955v-152h-396v-872h-164v872h-395z" />
<glyph unicode="&#x443;" d="M92 -309l31 147q106 -113 215 -112q82 0 128 48t77 136l22 70l-415 1044h180l313 -848l270 848h174l-387 -1147q-49 -150 -130 -228.5t-214 -78.5q-82 0 -149.5 30.5t-114.5 90.5z" />
<glyph unicode="&#x444;" d="M106 512q0 158 57.5 273.5t156 180t219.5 74.5v394h151v-394q123 -10 220.5 -74.5t154.5 -180t57 -273.5t-57 -273.5t-154.5 -180t-220.5 -74.5v-394h-151v394q-121 10 -219.5 74.5t-156 180t-57.5 273.5zM266 512q0 -162 75 -261t198 -116v754q-129 -16 -201 -113.5 t-72 -263.5zM690 135q129 17 201 114t72 263q0 162 -75 261t-198 116v-754z" />
<glyph unicode="&#x445;" d="M150 0l356 516l-352 508h188l264 -399l271 399h184l-350 -508l356 -516h-188l-269 406l-276 -406h-184z" />
<glyph unicode="&#x446;" d="M201 0v1024h164v-872h462v872h164v-872h125v-402h-141v250h-774z" />
<glyph unicode="&#x447;" d="M190 664v360h164v-317q0 -86 39 -125t127 -39q131 0 291 35v446h164v-1024h-164v428q-98 -18 -167 -27.5t-146 -9.5q-150 0 -229 70.5t-79 202.5z" />
<glyph unicode="&#x448;" d="M150 0v1024h151v-872h238v872h151v-872h238v872h151v-1024h-929z" />
<glyph unicode="&#x449;" d="M141 0v1024h152v-872h237v872h152v-872h238v872h151v-872h105v-402h-142v250h-893z" />
<glyph unicode="&#x44a;" d="M55 872v152h467v-367h279q166 0 246.5 -96t80.5 -231t-80.5 -232.5t-246.5 -97.5h-443v872h-303zM522 152h264q86 0 132.5 50t46.5 128t-46.5 127t-132.5 49h-264v-354z" />
<glyph unicode="&#x44b;" d="M145 0v1024h164v-367h144q163 0 244 -97t81 -230t-81 -231.5t-244 -98.5h-308zM309 152h131q86 0 132 50t46 128t-46 127t-132 49h-131v-354zM920 0v1024h163v-1024h-163z" />
<glyph unicode="&#x44c;" d="M246 0v1024h164v-367h319q166 0 247 -96t81 -231t-81 -232.5t-247 -97.5h-483zM410 152h305q86 0 132 50t46 128t-46 127t-132 49h-305v-354z" />
<glyph unicode="&#x44d;" d="M139 197l123 88q61 -80 126 -117t151 -37q119 0 209 83t106 237h-408v137h408q-18 147 -97 226t-196 79q-88 0 -152.5 -33t-121.5 -106l-117 96q76 98 171 146t222 48q119 0 223.5 -59t170 -180t65.5 -293q0 -174 -68.5 -294t-178 -179t-232.5 -59q-135 0 -230.5 55 t-173.5 162z" />
<glyph unicode="&#x44e;" d="M137 0v1024h164v-426h162q14 215 102 330.5t232 115.5q157 0 247.5 -138t90.5 -394t-90.5 -394t-247.5 -138q-145 0 -234.5 120.5t-101.5 345.5h-160v-446h-164zM614 512q0 -176 49.5 -278.5t131.5 -102.5q88 0 132 99.5t44 281.5q0 176 -48.5 278.5t-127.5 102.5 q-90 0 -135.5 -99.5t-45.5 -281.5z" />
<glyph unicode="&#x44f;" d="M143 0l252 414q-111 29 -163 109.5t-52 187.5q0 133 80 223t248 90h485v-1024h-164v399h-251l-244 -399h-191zM344 711q0 -76 45 -118t133 -42h307v321h-307q-88 0 -133 -44t-45 -117z" />
<glyph unicode="&#x451;" d="M154 512q0 176 63.5 296t167.5 178t227 58q211 0 337 -133t126 -389q0 -36 -6 -71l-754 -7q18 -152 109.5 -232.5t214.5 -80.5q84 0 150.5 26.5t150.5 98.5l94 -117q-84 -80 -178 -119.5t-213 -39.5q-129 0 -240.5 58t-180 179t-68.5 295zM293 1325q0 51 31.5 85t83.5 34 q47 0 81.5 -36t34.5 -87q0 -49 -33.5 -84t-82.5 -35q-45 0 -80 37t-35 86zM315 580h596q-4 135 -81.5 224t-213.5 89q-124 0 -205 -81t-96 -232zM723 1325q0 51 31.5 85t83.5 34q47 0 80.5 -36t33.5 -87q0 -49 -32.5 -84t-81.5 -35q-47 0 -81 37t-34 86z" />
<glyph unicode="&#x454;" d="M188 512q0 172 65.5 293t170 180t223.5 59q127 0 223.5 -48t171.5 -146l-118 -96q-55 74 -120 106.5t-153 32.5q-119 0 -197.5 -79t-95.5 -226h408v-137h-410q18 -154 107.5 -237t208.5 -83q86 0 150.5 37t125.5 117l123 -88q-78 -106 -173 -161.5t-230 -55.5 q-121 0 -231.5 59t-179.5 179t-69 294z" />
<glyph unicode="&#x456;" d="M207 0v152h381v720h-342v152h506v-872h321v-152h-866zM539 1346q0 63 34.5 102t92.5 39q53 0 90 -43t37 -103q0 -63 -35 -102t-92 -39q-53 0 -90 42t-37 104z" />
<glyph unicode="&#x457;" d="M207 0v152h381v720h-342v152h506v-872h321v-152h-866zM285 1325q0 51 31.5 85t82.5 34q47 0 82 -36t35 -87q0 -49 -33.5 -84t-83.5 -35q-45 0 -79.5 37t-34.5 86zM715 1325q0 51 31.5 85t82.5 34q47 0 81 -36t34 -87q0 -49 -32.5 -84t-82.5 -35q-47 0 -80.5 37t-33.5 86z " />
<glyph unicode="&#x45e;" d="M92 -309l31 147q106 -113 215 -112q82 0 128 48t77 136l22 70l-415 1044h180l313 -848l270 848h174l-387 -1147q-49 -150 -130 -228.5t-214 -78.5q-82 0 -149.5 30.5t-114.5 90.5zM287 1436h133q0 -70 46 -110t134 -40t134 40t46 110h133q0 -119 -80.5 -196t-232.5 -77 t-232.5 77t-80.5 196z" />
<glyph unicode="&#x490;" d="M285 0v1434h639v282h141v-434h-616v-1282h-164z" />
<glyph unicode="&#x491;" d="M293 0v1024h602v250h141v-402h-579v-872h-164z" />
<glyph unicode="&#x4a2;" d="M178 0v1434h164v-627h545v627h164v-1282h137v-435h-141v283h-160v655h-545v-655h-164z" />
<glyph unicode="&#x4a3;" d="M199 0v1024h163v-426h504v426h164v-872h125v-402h-141v250h-148v446h-504v-446h-163z" />
<glyph unicode="&#x4ae;" d="M84 1434h182l350 -742l351 742h178l-449 -908v-526h-164v526z" />
<glyph unicode="&#x4af;" d="M147 1024h181l286 -831l287 831h180l-385 -1024v-410h-164v410z" />
<glyph unicode="&#x4c1;" d="M59 0l205 735l-190 699h180l143 -627h140v627h155v-627h139l144 627h180l-190 -699l204 -735h-178l-153 655h-146v-655h-155v655h-146l-153 -655h-179zM301 1851h133q0 -70 46 -109.5t134 -39.5t134.5 40t46.5 109h133q0 -119 -81 -195.5t-233 -76.5t-232.5 77t-80.5 195 z" />
<glyph unicode="&#x4c2;" d="M80 0l219 528l-203 496h180l148 -426h113v426h155v-426h113l147 426h181l-203 -496l219 -528h-191l-151 446h-115v-446h-155v446h-115l-152 -446h-190zM301 1436h133q0 -70 46 -110t134 -40t134.5 40t46.5 110h133q0 -119 -81 -196t-233 -77t-232.5 77t-80.5 196z" />
<glyph unicode="&#x4e8;" d="M106 717q0 240 70 406.5t184.5 248.5t253.5 82q140 0 254.5 -82t184 -249t69.5 -406q0 -240 -69.5 -407t-184 -248.5t-254.5 -81.5q-139 0 -253.5 81.5t-184.5 248.5t-70 407zM270 655q8 -164 56.5 -282.5t124 -180t163.5 -61.5q93 0 167.5 61.5t121.5 179t55 283.5h-688 zM272 807h684q-10 156 -59 267.5t-123 170t-160 58.5q-137 0 -231 -130.5t-111 -365.5z" />
<glyph unicode="&#x4e9;" d="M158 512q0 174 63.5 295t168 179t224.5 58q121 0 225.5 -58t168 -179t63.5 -295t-63.5 -295t-168 -179t-225.5 -58t-225 58t-167.5 179t-63.5 295zM326 446q16 -150 96 -232.5t192 -82.5q119 0 197 82t92 233h-577zM328 598h571q-18 141 -98 218t-187 77q-114 0 -191 -76 t-95 -219z" />
<glyph unicode="&#x2000;" horiz-adv-x="930" />
<glyph unicode="&#x2001;" horiz-adv-x="1860" />
<glyph unicode="&#x2002;" horiz-adv-x="930" />
<glyph unicode="&#x2003;" horiz-adv-x="1860" />
<glyph unicode="&#x2004;" horiz-adv-x="620" />
<glyph unicode="&#x2005;" horiz-adv-x="465" />
<glyph unicode="&#x2006;" horiz-adv-x="310" />
<glyph unicode="&#x2007;" horiz-adv-x="310" />
<glyph unicode="&#x2008;" horiz-adv-x="232" />
<glyph unicode="&#x2009;" horiz-adv-x="372" />
<glyph unicode="&#x200a;" horiz-adv-x="103" />
<glyph unicode="&#x2010;" d="M313 524v152h602v-152h-602z" />
<glyph unicode="&#x2011;" d="M313 524v152h602v-152h-602z" />
<glyph unicode="&#x2012;" d="M313 524v152h602v-152h-602z" />
<glyph unicode="&#x2013;" d="M209 524v152h811v-152h-811z" />
<glyph unicode="&#x2014;" d="M131 524v152h967v-152h-967z" />
<glyph unicode="&#x2018;" d="M477 1057q0 117 50.5 219t154.5 178l63 -63q-55 -39 -94 -97.5t-47 -119.5h4q51 0 91 -40t40 -102q0 -63 -36.5 -99t-88.5 -36q-61 0 -99 43t-38 117z" />
<glyph unicode="&#x2019;" d="M483 961q55 39 94 97t48 120h-4q-51 0 -91.5 39.5t-40.5 101.5q0 61 37 98t88 37q62 0 100 -43t38 -117q0 -117 -50.5 -219t-154.5 -178z" />
<glyph unicode="&#x201a;" d="M483 -238q53 39 92 97.5t48 120.5h-5q-51 0 -91 39.5t-40 101.5q0 63 38 99t87 36q62 0 100 -43t38 -117q0 -117 -50.5 -219t-154.5 -178z" />
<glyph unicode="&#x201c;" d="M270 1057q0 117 50.5 219t154.5 178l64 -63q-55 -39 -94 -97.5t-48 -119.5h4q51 0 91 -40t40 -102q0 -63 -36.5 -99t-87.5 -36q-60 0 -99 43t-39 117zM688 1057q0 117 50 219t153 178l63 -63q-55 -39 -94 -97.5t-47 -119.5h6q51 0 91 -40t40 -102q0 -63 -38 -99t-87 -36 q-61 0 -99 43t-38 117z" />
<glyph unicode="&#x201d;" d="M274 961q55 39 94.5 97t47.5 120h-4q-51 0 -91 39.5t-40 101.5q0 61 36.5 98t88.5 37q59 0 98 -44t39 -116q0 -117 -50.5 -219t-154.5 -178zM690 961q55 39 94 97t47 120h-4q-51 0 -91 39.5t-40 101.5q0 61 37 98t88 37q60 0 98.5 -44t38.5 -116q0 -117 -50 -219 t-154 -178z" />
<glyph unicode="&#x201e;" d="M274 -238q55 39 94.5 97.5t47.5 120.5h-4q-51 0 -91 39.5t-40 101.5q0 63 36.5 99t88.5 36q59 0 98 -43t39 -117q0 -117 -50.5 -219t-154.5 -178zM690 -238q55 39 94 97.5t47 120.5h-4q-51 0 -91 39.5t-40 101.5q0 63 37 99t88 36q60 0 98.5 -43t38.5 -117 q0 -117 -50 -219t-154 -178z" />
<glyph unicode="&#x2026;" d="M113 121q0 65 32.5 100t83.5 35q47 0 82 -38t35 -101q0 -66 -32.5 -101.5t-84.5 -35.5q-47 0 -81.5 37.5t-34.5 103.5zM498 121q0 65 32.5 100t83.5 35q47 0 82 -38t35 -101q0 -66 -32.5 -101.5t-84.5 -35.5q-47 0 -81.5 37.5t-34.5 103.5zM883 121q0 65 32.5 100 t83.5 35q47 0 82 -38t35 -101q0 -66 -32.5 -101.5t-84.5 -35.5q-47 0 -81.5 37.5t-34.5 103.5z" />
<glyph unicode="&#x202f;" horiz-adv-x="372" />
<glyph unicode="&#x2039;" d="M358 530v54q184 184 336 395l109 -107q-131 -164 -307 -315q176 -151 307 -315l-109 -107q-152 211 -336 395z" />
<glyph unicode="&#x203a;" d="M426 242q131 164 307 315q-176 152 -307 315l109 107q151 -211 335 -395v-54q-184 -184 -335 -395z" />
<glyph unicode="&#x205f;" horiz-adv-x="465" />
<glyph unicode="&#x20ac;" d="M100 799l29 135h145q45 254 187.5 387t333.5 133q88 0 170 -27.5t145 -76.5l-31 -150q-137 102 -284 103q-125 0 -220.5 -95.5t-132.5 -273.5h578l-29 -135h-567q-2 -27 -2 -82t2 -82h532l-28 -135h-482q39 -176 136.5 -272.5t210.5 -96.5q76 0 141 24.5t137 77.5v-151 q-109 -102 -287 -102q-113 0 -217 58t-182 175t-109 287h-174l29 135h129q-2 27 -2 82t2 82h-160z" />
<glyph unicode="&#x2122;" d="M57 1313v121h414v-121h-141v-555h-131v555h-142zM551 758v676h172l102 -381l101 381h172v-676h-133v497l-86 -303h-107l-88 305v-499h-133z" />
<glyph unicode="&#x25fc;" horiz-adv-x="1024" d="M0 0v1024h1024v-1024h-1024z" />
</font>
</defs>
</svg>
